<?xml version="1.0" encoding="iso-8859-1"?>
<!-- Generator: Adobe Illustrator 19.0.0, SVG Export Plug-In . SVG Version: 6.00 Build 0)  -->
<svg version="1.1" id="Layer_1" xmlns="http://www.w3.org/2000/svg" xmlns:xlink="http://www.w3.org/1999/xlink" x="0px" y="0px"
	 viewBox="0 0 277.135 277.135" style="enable-background:new 0 0 277.135 277.135;" xml:space="preserve">
<g>
	<path style="fill:#1D1D1B;" d="M222.563,72.865c2.001,8.142,0.693,16.969-3.425,23.932c14.355,11.414,15.664,34.776-0.423,46.457
		c-5.119,3.729-10.468,4.452-15.972,3.843v0.038c-11.969,29.221-16.78,60.573-28.287,89.87c-8.159,20.66-16.01,36.603-39.563,39.646
		c-17.434,2.283-29.403-3.348-35.291-20.28c-11.084-31.732-16.587-68.982-22.245-102.084c-11.469-0.495-21.629-4.984-27.479-17.616
		c-8.082-17.388,0.269-39.532,18.396-45.848c-0.808-4.49-0.192-9.246,1.963-13.888c7.659-16.513,32.213-15.6,32.367-36.146
		c-8.813-8.409-20.013-15.98-17.165-28.156c2.463-10.463,15.51-12.29,24.515-12.594c26.132-0.875,53.649,13.089,62.809,37.059
		c0.077,0.038,0.193,0.038,0.269,0.076C193.045,46.117,216.29,47.639,222.563,72.865z M198.394,142.151
		c27.248,3.348,35.792-27.014,18.589-42.196c-4.003,5.136-9.737,8.865-16.972,9.816c-2.155,0.304-3.079-2.549-0.924-3.31
		c22.591-7.61,25.978-33.444,9.583-49.273c-9.814-9.474-23.053-10.92-34.676-16.627c1.116,3.843,1.809,7.914,1.924,12.214
		c0.077,1.788-2.809,2.207-3.156,0.419c-3.271-17.54-11.584-32.151-27.71-41.168c-6.042-3.386-12.739-5.631-19.551-6.925
		C113.149,2.78,81.36-0.416,95.638,28.197c3.848,7.724,13.431,12.099,17.088,20.47c3.464,7.876,3.156,14.801-1.847,21.688
		c-0.847,1.179-2.81,0.114-2.04-1.18c6.773-11.262,2.809-18.948-3.656-25.797c0.616,6.62-1.963,12.48-7.736,16.894
		c-4.118,3.158-9.352,4.566-13.662,7.419c-11.931,7.914-15.471,22.753-6.004,34.015c1.347,1.636-0.77,3.843-2.348,2.321
		c-3.156-3.006-5.272-6.582-6.466-10.349c-13.355,6.735-21.475,20.965-17.434,36.298c5.58,21.003,26.209,22.144,43.874,18.492
		c16.202-3.348,31.712-9.398,48.03-12.442c13.239-2.435,26.555-2.968,39.602,0.723C188.157,138.194,193.16,141.505,198.394,142.151z
		 M198.933,146.489c-2.271-0.495-4.541-1.141-6.851-1.864c-13.662-4.299-25.901-5.859-38.409-5.099
		c-9.583,0.533-19.32,2.397-29.903,5.327c-12.354,3.424-28.633,9.284-43.258,9.512c1.732,6.468,3.31,13.012,4.811,19.557
		c3.887,16.665,7.274,33.483,10.891,50.224c2.232,10.273,3.695,21.231,7.158,31.2c7.274,20.812,33.906,21.155,48.8,9.055
		c7.582-6.164,12.893-14.458,16.972-23.666c5.85-13.013,9.16-27.813,12.7-40.674C186.81,181.912,191.621,163.839,198.933,146.489z"
		/>
	<path style="fill:#1D1D1B;" d="M218.83,123.888c0.192-0.913,1.693-0.723,1.655,0.19c-0.269,4.375-3.194,7.876-7.235,9.55
		c-0.885,0.342-1.501-1.141-0.654-1.56C215.982,130.471,218.099,127.465,218.83,123.888z"/>
	<path style="fill:#FACCE3;" d="M216.983,99.956c17.203,15.181,8.659,45.544-18.589,42.196c-5.234-0.647-10.237-3.957-15.356-5.403
		c-13.047-3.691-26.363-3.158-39.602-0.723c-16.318,3.044-31.828,9.094-48.03,12.442c-17.665,3.653-38.293,2.511-43.874-18.492
		c-4.041-15.333,4.079-29.564,17.434-36.298c1.193,3.767,3.31,7.343,6.466,10.349c1.578,1.522,3.695-0.685,2.348-2.321
		c-9.467-11.262-5.927-26.101,6.004-34.015c4.31-2.854,9.544-4.261,13.662-7.419c5.773-4.414,8.351-10.273,7.736-16.894
		c6.466,6.849,10.43,14.535,3.656,25.797c-0.77,1.294,1.193,2.359,2.04,1.18c5.003-6.887,5.311-13.812,1.847-21.688
		c-3.656-8.371-13.239-12.746-17.088-20.47C81.36-0.416,113.149,2.78,125.503,5.101c6.812,1.294,13.508,3.538,19.551,6.925
		c16.125,9.017,24.438,23.628,27.71,41.168c0.346,1.788,3.233,1.37,3.156-0.419c-0.115-4.299-0.808-8.371-1.924-12.214
		c11.623,5.707,24.862,7.153,34.676,16.627c16.395,15.828,13.008,41.663-9.583,49.273c-2.155,0.761-1.232,3.615,0.924,3.31
		C207.246,108.821,212.98,105.092,216.983,99.956z M220.485,124.079c0.038-0.913-1.463-1.103-1.655-0.19
		c-0.731,3.577-2.848,6.582-6.235,8.18c-0.847,0.419-0.231,1.902,0.654,1.56C217.291,131.955,220.216,128.454,220.485,124.079z
		 M216.483,119.969c0.231-0.761-0.962-1.065-1.231-0.304c-0.616,1.56-1.501,2.815-2.771,3.919c-0.731,0.609,0.308,1.636,1.001,1.027
		C214.943,123.318,215.944,121.834,216.483,119.969z M204.899,62.288c0.539,1.027,2.04,0.114,1.578-0.913
		c-2.04-4.452-6.158-7.458-11.045-8.218c-1.078-0.152-1.539,1.446-0.462,1.674C199.28,55.744,202.82,58.445,204.899,62.288z
		 M203.09,66.055c0.577,0.951,2.078,0.076,1.501-0.913c-1.77-3.006-4.118-5.441-7.081-7.343c-0.885-0.571-1.616,0.761-0.808,1.37
		C199.241,61.032,201.396,63.391,203.09,66.055z M183.924,96.988c1.578-3.158,2.001-6.354,1.309-9.816
		c-0.269-1.218-2.078-0.685-1.886,0.533c0.462,2.816,0.115,5.707-1.078,8.295C181.769,97.102,183.385,98.091,183.924,96.988z
		 M153.097,69.137c1.27-3.082,1.347-6.278,0.539-9.474c-0.269-0.951-1.732-0.533-1.539,0.419c0.616,2.93,0.346,5.783-0.5,8.637
		C151.326,69.669,152.712,70.012,153.097,69.137z M147.978,59.548c0.115,0.723,1.193,0.419,1.078-0.266
		c-0.269-1.75-0.577-3.5-0.885-5.251c-0.115-0.685-1.155-0.418-1.039,0.266C147.401,56.048,147.67,57.836,147.978,59.548z
		 M145.669,19.446c0.616,0.495,1.424-0.266,0.885-0.913c-2.733-3.12-6.312-5.022-10.353-5.898c-0.885-0.19-1.232,1.065-0.385,1.294
		C139.473,15.07,142.744,17.048,145.669,19.446z M144.322,13.89c0.808,0.304,1.501-0.799,0.693-1.218
		c-3.733-1.902-7.697-2.968-11.892-3.31c-0.654-0.038-0.808,1.027-0.154,1.141C136.856,11.189,140.666,12.33,144.322,13.89z
		 M144.668,125.981c0.654-0.076,0.693-1.103,0-1.065c-1.77,0.152-3.541,0.266-5.311,0.457c-0.731,0.076-0.731,1.218,0,1.179
		C141.128,126.399,142.898,126.209,144.668,125.981z M141.782,131.878c0.847,0,0.847-1.294,0-1.294
		c-2.348-0.076-4.503,0.457-6.62,1.484c-0.77,0.38-0.077,1.56,0.731,1.179C137.741,132.373,139.704,131.955,141.782,131.878z
		 M120.961,113.235c0.808,0.228,1.309-0.951,0.577-1.332c-2.578-1.37-4.002-4.718-2.655-7.381c0.539-1.065-1.001-1.94-1.578-0.913
		C115.227,107.223,116.843,111.979,120.961,113.235z M115.881,98.852c0.962-0.723,0.077-2.359-1.001-1.674
		c-3.194,2.131-4.965,5.821-3.733,9.55c0.269,0.799,1.616,0.723,1.578-0.228C112.494,103.608,113.418,100.603,115.881,98.852z
		 M85.785,75.072c0.539-0.951-0.847-1.75-1.501-0.837c-1.27,1.788-2.425,3.691-3.541,5.555c-0.577,0.989,0.885,1.826,1.501,0.875
		C83.476,78.839,84.708,77.013,85.785,75.072z M81.321,76.214c0.693-0.609-0.231-1.826-1.001-1.294
		c-2.925,2.017-4.618,5.213-4.31,8.751c0.077,0.989,1.462,0.989,1.539,0C77.78,80.741,79.05,78.154,81.321,76.214z M72.008,141.162
		c1.039,0.114,1.193-1.484,0.269-1.75c-3.964-1.18-7.12-3.31-9.775-6.392c-0.693-0.799-2.001,0.228-1.462,1.103
		C63.425,138.08,67.466,140.592,72.008,141.162z M66.735,142.342c0.885,0.114,1.078-1.332,0.231-1.522
		c-4.195-0.799-7.659-3.12-9.737-6.849c-0.346-0.609-1.232-0.076-0.962,0.533C58.114,138.803,62.078,141.771,66.735,142.342z"/>
	<path style="fill:#1D1D1B;" d="M215.251,119.665c0.269-0.761,1.462-0.457,1.231,0.304c-0.539,1.864-1.539,3.348-3.002,4.642
		c-0.693,0.609-1.732-0.419-1.001-1.027C213.75,122.48,214.635,121.225,215.251,119.665z"/>
	<path style="fill:#1D1D1B;" d="M206.476,61.375c0.462,1.027-1.039,1.94-1.578,0.913c-2.078-3.843-5.619-6.544-9.929-7.458
		c-1.078-0.228-0.616-1.826,0.462-1.674C200.319,53.917,204.437,56.923,206.476,61.375z"/>
	<path style="fill:#1D1D1B;" d="M204.591,65.142c0.577,0.989-0.924,1.864-1.501,0.913c-1.693-2.663-3.849-5.022-6.389-6.887
		c-0.808-0.609-0.077-1.94,0.808-1.37C200.473,59.701,202.82,62.136,204.591,65.142z"/>
	<path style="fill:#FDE9CC;" d="M192.083,144.625c2.309,0.723,4.58,1.37,6.851,1.864c-7.312,17.35-12.123,35.423-17.088,53.572
		c-3.541,12.86-6.85,27.661-12.7,40.674l-3.04-1.37c0.577-1.408,0.962-2.93,1.116-4.452c0.077-0.913-1.385-1.103-1.616-0.19
		c-0.885,3.767-2.386,6.887-4.965,9.816c-0.231,0.266-0.231,0.533-0.154,0.761l-6.196,1.18c-1.655-1.065-3.348-2.093-5.042-3.12
		c3.002-5.707,6.004-11.414,9.044-17.046c0.847-0.076,1.424-1.027,0.924-1.75c3.117-5.745,6.235-11.491,9.314-17.274
		c0.462-0.913-0.847-1.674-1.424-0.799c-3.618,5.327-6.889,10.92-10.006,16.627c-4.849-2.968-9.775-5.783-14.817-8.523
		c3.541-6.392,7.004-12.746,10.468-19.176c5.657,2.549,11.276,5.06,16.934,7.457c1.462,0.609,2.771-1.408,1.27-2.207
		c-5.426-2.854-10.93-5.669-16.51-8.409c3.156-5.859,6.312-11.719,9.429-17.616c3.81,1.788,7.62,3.5,11.469,5.136
		c1.309,0.533,2.463-1.218,1.154-1.902c-3.733-2.017-7.505-3.919-11.315-5.821c2.078-3.995,4.118-7.99,6.196-11.947
		c3.733,1.902,7.505,3.805,11.315,5.669c1.308,0.647,2.386-1.141,1.155-1.94c-3.579-2.321-7.351-4.338-11.161-6.278
		c1.655-3.234,3.348-6.468,5.003-9.702c0.462-0.951-0.924-1.75-1.462-0.837c-1.847,3.158-3.618,6.392-5.465,9.588
		c-6.042-2.93-12.238-5.517-18.435-7.952c0.808-1.484,1.655-3.006,2.463-4.49c0.423-0.799-0.192-1.446-0.885-1.446l-0.231-3.196
		C166.182,138.765,178.42,140.325,192.083,144.625z M190.851,151.702c0.616,0.609,1.501-0.304,0.962-0.951
		c-1.655-2.055-3.926-3.577-6.542-4.033c-0.847-0.152-1.155,0.989-0.346,1.294C187.195,148.886,189.081,149.989,190.851,151.702z
		 M190.466,155.697c0.808,0.533,1.809-0.723,1.039-1.37c-1.578-1.37-3.348-2.549-5.08-3.805c-0.731-0.495-1.655,0.685-0.962,1.256
		C187.118,153.109,188.696,154.517,190.466,155.697z M164.643,234.381c0.5-0.837-0.731-1.484-1.27-0.723
		c-1.424,1.978-2.694,4.033-3.925,6.126c-0.462,0.761,0.693,1.408,1.193,0.685C162.064,238.49,163.411,236.511,164.643,234.381z"/>
	<path style="fill:#1D1D1B;" d="M191.813,150.75c0.539,0.647-0.346,1.56-0.962,0.951c-1.77-1.712-3.656-2.816-5.927-3.691
		c-0.808-0.304-0.5-1.446,0.346-1.294C187.888,147.174,190.159,148.696,191.813,150.75z"/>
	<path style="fill:#1D1D1B;" d="M191.506,154.327c0.77,0.647-0.231,1.902-1.039,1.37c-1.77-1.18-3.348-2.587-5.003-3.919
		c-0.693-0.571,0.231-1.75,0.962-1.256C188.157,151.778,189.928,152.957,191.506,154.327z"/>
	<path style="fill:#1D1D1B;" d="M185.232,87.172c0.693,3.462,0.269,6.658-1.309,9.816c-0.539,1.103-2.155,0.114-1.655-0.989
		c1.193-2.587,1.539-5.479,1.078-8.295C183.154,86.487,184.963,85.954,185.232,87.172z"/>
	<path style="fill:#1D1D1B;" d="M183.847,163.839c1.232,0.799,0.154,2.587-1.155,1.94c-3.81-1.864-7.582-3.767-11.315-5.669
		c-2.078,3.957-4.118,7.952-6.196,11.947c3.81,1.902,7.582,3.805,11.315,5.821c1.309,0.685,0.154,2.435-1.154,1.902
		c-3.849-1.636-7.659-3.348-11.469-5.136c-3.117,5.897-6.273,11.757-9.429,17.616c5.58,2.739,11.084,5.555,16.51,8.409
		c1.501,0.799,0.192,2.816-1.27,2.207c-5.657-2.397-11.276-4.908-16.934-7.457c-3.464,6.43-6.927,12.784-10.468,19.176
		c5.042,2.74,9.968,5.555,14.817,8.523c3.117-5.707,6.389-11.3,10.006-16.627c0.577-0.875,1.886-0.114,1.424,0.799
		c-3.079,5.783-6.196,11.529-9.314,17.274c0.5,0.723-0.077,1.674-0.924,1.75c-3.04,5.631-6.042,11.339-9.044,17.046
		c1.693,1.027,3.387,2.055,5.042,3.12c1.347,0.837,0.192,2.701-1.232,2.055c-1.732-0.761-3.464-1.598-5.234-2.473
		c-1.078,2.093-2.194,4.109-3.271,6.202c-0.269,0.533-1.154,0.152-0.924-0.38c0.847-2.207,1.809-4.376,2.732-6.544
		c-5.465-2.777-10.891-5.859-16.164-9.208c-2.425,4.223-4.849,8.409-7.312,12.632c4.31,2.207,8.659,4.223,13.124,6.316
		c1.039,0.495,0.269,2.131-0.77,1.826c-4.695-1.446-9.198-3.615-13.508-6.164c-1.578,2.701-3.079,5.441-4.695,8.142
		c-0.385,0.685-1.424,0.076-1.078-0.647c1.424-2.777,2.886-5.593,4.31-8.371c-3.117-1.94-6.119-4.033-8.929-6.202
		c-0.654-0.495,0.193-1.56,0.847-1.142c2.963,2.017,6.004,3.729,9.083,5.365c2.232-4.414,4.464-8.789,6.697-13.165
		c-5.619-3.653-11.084-7.533-16.164-11.452c-0.231-0.19-0.269-0.457-0.154-0.685c0.154-0.342,0.577-0.571,0.962-0.38
		c5.619,3.082,11.276,6.24,16.934,9.436c2.732-5.213,5.504-10.387,8.275-15.562c-5.965-3.272-11.854-6.658-17.742-10.083
		c-3.117,5.365-6.196,10.73-9.352,16.056c-1.232,2.093-2.425,4.147-3.656,6.202c-0.385,0.647-1.27,0.076-0.962-0.571
		c3.502-7.762,7.274-15.562,11.199-23.286c-4.58-2.663-9.121-5.327-13.662-7.914c-0.847-0.457-0.077-1.75,0.77-1.294
		c4.618,2.359,9.275,4.718,13.97,7.077c3.194-6.202,6.427-12.366,9.852-18.454c-6.235-3.082-12.469-6.24-18.588-9.398
		c-2.963,4.68-5.888,9.398-8.736,14.192c-0.462,0.761-1.616,0.076-1.231-0.723c2.54-4.908,5.234-9.74,8.159-14.42
		c-3.618-1.864-7.235-3.767-10.814-5.669c-0.269-0.152-0.385-0.342-0.385-0.571c0-0.457,0.539-0.913,1.116-0.647
		c3.772,1.56,7.582,3.234,11.392,4.832c2.194-3.424,4.464-6.849,6.889-10.159c0.616-0.875,2.078-0.076,1.462,0.837
		c-2.194,3.386-4.31,6.773-6.466,10.159c6.312,2.74,12.662,5.555,18.973,8.409c3.387-5.974,6.85-11.909,10.391-17.73
		c-6.62-3.501-13.201-7.039-19.705-10.577c-0.924-0.533-0.115-1.902,0.847-1.446c6.735,3.272,13.509,6.506,20.321,9.74
		c2.309-3.805,4.695-7.534,7.12-11.224c-0.077-0.038-0.154-0.076-0.231-0.114c-1.155-0.457-0.654-2.283,0.5-1.826
		c0.269,0.076,0.539,0.19,0.808,0.304c1.001-1.522,2.001-3.082,3.002-4.604c0.231-0.342,0.539-0.457,0.847-0.457
		c0.693,0,1.308,0.647,0.885,1.446c-0.808,1.484-1.655,3.006-2.463,4.49c6.196,2.435,12.392,5.022,18.435,7.952
		c1.847-3.196,3.618-6.43,5.465-9.588c0.539-0.913,1.924-0.114,1.462,0.837c-1.655,3.234-3.348,6.468-5.003,9.702
		C176.496,159.502,180.268,161.518,183.847,163.839z M162.641,170.726c2.232-3.881,4.464-7.762,6.697-11.681
		c-5.927-3.006-11.854-5.936-18.011-8.599c-2.117,3.881-4.233,7.8-6.389,11.681C150.865,164.942,156.791,167.834,162.641,170.726z
		 M151.48,190.777c3.233-5.783,6.389-11.643,9.66-17.426c-5.888-2.778-11.738-5.745-17.549-8.751
		c-3.271,5.935-6.619,11.833-9.968,17.73C139.627,185.108,145.592,187.924,151.48,190.777z M139.434,213.036
		c3.387-6.354,6.812-12.67,10.276-18.986c-6.004-2.777-11.969-5.593-17.896-8.485c-3.425,6.088-6.927,12.137-10.43,18.187
		C127.427,206.796,133.469,209.878,139.434,213.036z M147.632,242.333c2.54-5.745,5.273-11.414,8.274-17.008
		c-5.157-2.435-10.237-5.022-15.279-7.724c-2.886,5.137-5.734,10.311-8.621,15.448C137.279,236.055,142.475,239.175,147.632,242.333
		z"/>
	<path style="fill:#FDE9CC;" d="M169.338,159.045c-2.232,3.919-4.464,7.8-6.697,11.681c-5.85-2.892-11.777-5.783-17.703-8.599
		c2.155-3.881,4.272-7.8,6.389-11.681C157.484,153.109,163.411,156.039,169.338,159.045z"/>
	<path style="fill:#FDE9CC;" d="M166.105,239.365l3.04,1.37c-4.079,9.208-9.391,17.502-16.972,23.666
		c-14.894,12.099-41.526,11.757-48.8-9.055c-3.464-9.969-4.926-20.927-7.158-31.2c-3.618-16.741-7.004-33.559-10.891-50.224
		l2.81-0.647c0.115,0.685,1.308,0.533,1.231-0.19c-0.192-2.131-0.5-4.261-0.808-6.392l0.539-0.076
		c0.693,2.892,1.501,5.745,2.386,8.599c0.308,1.027,1.886,0.571,1.616-0.457c-0.5-2.055-1.039-4.109-1.616-6.126l5.157-1.408
		c0,0.228,0.116,0.419,0.385,0.571c3.579,1.902,7.197,3.805,10.814,5.669c-2.925,4.68-5.619,9.512-8.159,14.42
		c-0.385,0.799,0.77,1.484,1.231,0.723c2.848-4.794,5.773-9.512,8.736-14.192c6.119,3.158,12.354,6.316,18.588,9.398
		c-3.425,6.088-6.658,12.252-9.852,18.454c-4.695-2.359-9.352-4.718-13.97-7.077c-0.847-0.457-1.616,0.837-0.77,1.294
		c4.541,2.587,9.083,5.251,13.662,7.914c-3.925,7.724-7.697,15.524-11.199,23.286c-0.308,0.647,0.577,1.217,0.962,0.571
		c1.232-2.055,2.425-4.109,3.656-6.202l0.924,0.533c-0.115,0.228-0.077,0.495,0.154,0.685c5.08,3.919,10.545,7.8,16.164,11.452
		c-2.232,4.376-4.464,8.751-6.697,13.165c-3.079-1.636-6.119-3.348-9.083-5.365c-0.654-0.419-1.501,0.647-0.847,1.142
		c2.81,2.169,5.811,4.261,8.929,6.202c-1.424,2.778-2.886,5.593-4.31,8.371c-0.346,0.723,0.693,1.332,1.078,0.647
		c1.616-2.701,3.117-5.441,4.695-8.142c4.31,2.549,8.813,4.718,13.508,6.164c1.039,0.304,1.809-1.332,0.77-1.826
		c-4.464-2.093-8.813-4.109-13.124-6.316c2.463-4.223,4.888-8.409,7.312-12.632c5.272,3.348,10.699,6.43,16.164,9.208
		c-0.924,2.169-1.886,4.338-2.732,6.544c-0.231,0.533,0.654,0.913,0.924,0.38c1.078-2.093,2.194-4.109,3.271-6.202
		c1.77,0.875,3.502,1.712,5.234,2.473c1.424,0.647,2.579-1.218,1.232-2.055l6.196-1.18c0.192,0.419,0.731,0.647,1.193,0.228
		C163.603,243.855,165.143,241.724,166.105,239.365z M135.855,265.923c0.808-0.495,0.115-1.712-0.731-1.256
		c-3.926,2.131-8.505,2.131-12.315-0.266c-0.731-0.457-1.385,0.647-0.693,1.141C126.234,268.396,131.622,268.624,135.855,265.923z"
		/>
	<path style="fill:#1D1D1B;" d="M165.605,234.723c0.231-0.913,1.693-0.723,1.616,0.19c-0.154,1.522-0.539,3.044-1.116,4.452
		c-0.962,2.359-2.502,4.49-4.426,6.164c-0.462,0.419-1.001,0.19-1.193-0.228c-0.077-0.228-0.077-0.495,0.154-0.761
		C163.219,241.61,164.719,238.49,165.605,234.723z"/>
	<path style="fill:#1D1D1B;" d="M163.372,233.658c0.539-0.761,1.77-0.114,1.27,0.723c-1.232,2.131-2.579,4.109-4.002,6.088
		c-0.5,0.723-1.655,0.076-1.193-0.685C160.678,237.691,161.949,235.636,163.372,233.658z"/>
	<path style="fill:#FDE9CC;" d="M161.14,173.351c-3.271,5.783-6.427,11.643-9.66,17.426c-5.888-2.854-11.854-5.669-17.857-8.447
		c3.348-5.898,6.697-11.795,9.968-17.73C149.402,167.606,155.252,170.574,161.14,173.351z"/>
	<path style="fill:#1D1D1B;" d="M153.636,59.663c0.808,3.196,0.731,6.392-0.539,9.474c-0.385,0.875-1.77,0.533-1.501-0.418
		c0.847-2.854,1.116-5.707,0.5-8.637C151.904,59.13,153.366,58.711,153.636,59.663z"/>
	<path style="fill:#FDE9CC;" d="M153.674,139.526l0.231,3.196c-0.308,0-0.616,0.114-0.847,0.457
		c-1.001,1.522-2.001,3.082-3.002,4.604c-0.269-0.114-0.539-0.228-0.808-0.304c-1.155-0.457-1.655,1.37-0.5,1.826
		c0.077,0.038,0.154,0.076,0.231,0.114c-2.425,3.691-4.811,7.419-7.12,11.224c-6.812-3.234-13.585-6.468-20.321-9.74
		c-0.962-0.457-1.77,0.913-0.847,1.446c6.504,3.538,13.085,7.077,19.705,10.577c-3.541,5.821-7.004,11.757-10.391,17.73
		c-6.312-2.854-12.662-5.669-18.973-8.409c2.155-3.386,4.272-6.773,6.466-10.159c0.616-0.913-0.847-1.712-1.462-0.837
		c-2.425,3.31-4.695,6.735-6.889,10.159c-3.81-1.598-7.62-3.272-11.392-4.832c-0.577-0.266-1.116,0.19-1.116,0.647l-5.157,1.408
		c-0.231-0.837-0.462-1.636-0.693-2.473c-0.346-1.065-1.963-0.609-1.693,0.456l-0.539,0.076c-0.154-1.103-0.308-2.169-0.462-3.272
		c-0.077-0.571-1.039-0.419-0.962,0.114c0.308,3.272,0.577,6.506,1.001,9.74l-2.81,0.647c-1.501-6.544-3.079-13.089-4.811-19.557
		c14.625-0.228,30.904-6.088,43.258-9.512C134.354,141.923,144.091,140.059,153.674,139.526z"/>
	<path style="fill:#FDE9CC;" d="M149.71,194.049c-3.464,6.316-6.889,12.632-10.276,18.986c-5.965-3.158-12.008-6.24-18.05-9.284
		c3.502-6.05,7.004-12.099,10.43-18.187C137.741,188.456,143.706,191.272,149.71,194.049z"/>
	<path style="fill:#FDE9CC;" d="M155.906,225.325c-3.002,5.593-5.734,11.262-8.274,17.008c-5.157-3.158-10.353-6.278-15.625-9.284
		c2.886-5.136,5.734-10.311,8.621-15.448C145.669,220.303,150.749,222.89,155.906,225.325z"/>
	<path style="fill:#1D1D1B;" d="M149.056,59.282c0.115,0.685-0.962,0.989-1.078,0.266c-0.308-1.712-0.577-3.5-0.847-5.251
		c-0.115-0.685,0.924-0.951,1.039-0.266C148.479,55.782,148.786,57.532,149.056,59.282z"/>
	<path style="fill:#1D1D1B;" d="M146.554,18.532c0.539,0.647-0.269,1.408-0.885,0.913c-2.925-2.397-6.196-4.376-9.852-5.517
		c-0.847-0.228-0.5-1.484,0.385-1.294C140.243,13.51,143.822,15.412,146.554,18.532z"/>
	<path style="fill:#1D1D1B;" d="M145.015,12.673c0.808,0.419,0.115,1.522-0.693,1.218c-3.656-1.56-7.466-2.701-11.353-3.386
		c-0.654-0.114-0.5-1.179,0.154-1.141C137.318,9.705,141.282,10.77,145.015,12.673z"/>
	<path style="fill:#1D1D1B;" d="M144.668,124.916c0.693-0.038,0.654,0.989,0,1.065c-1.77,0.228-3.541,0.419-5.311,0.571
		c-0.731,0.038-0.731-1.103,0-1.179C141.128,125.182,142.898,125.068,144.668,124.916z"/>
	<path style="fill:#1D1D1B;" d="M141.782,130.585c0.847,0,0.847,1.294,0,1.294c-2.078,0.076-4.041,0.495-5.888,1.37
		c-0.808,0.381-1.501-0.799-0.731-1.179C137.279,131.041,139.434,130.509,141.782,130.585z"/>
	<path style="fill:#FDE9CC;" d="M137.818,216.079c-2.771,5.175-5.542,10.349-8.275,15.562c-5.657-3.196-11.315-6.354-16.934-9.436
		c-0.385-0.19-0.808,0.038-0.962,0.38l-0.924-0.533c3.156-5.327,6.235-10.692,9.352-16.056
		C125.964,209.421,131.853,212.807,137.818,216.079z"/>
	<path style="fill:#1D1D1B;" d="M135.124,264.667c0.847-0.457,1.539,0.761,0.731,1.256c-4.233,2.701-9.621,2.473-13.739-0.38
		c-0.693-0.495-0.038-1.598,0.693-1.141C126.619,266.798,131.198,266.798,135.124,264.667z"/>
	<path style="fill:#1D1D1B;" d="M121.539,111.903c0.731,0.381,0.231,1.56-0.577,1.332c-4.118-1.256-5.734-6.012-3.656-9.626
		c0.577-1.027,2.117-0.152,1.578,0.913C117.536,107.185,118.96,110.533,121.539,111.903z"/>
	<path style="fill:#1D1D1B;" d="M114.881,97.178c1.078-0.685,1.963,0.951,1.001,1.674c-2.463,1.75-3.387,4.756-3.156,7.648
		c0.038,0.951-1.309,1.027-1.578,0.228C109.916,103,111.686,99.309,114.881,97.178z"/>
	<path style="fill:#1D1D1B;" d="M93.098,174.759c0.269,1.027-1.309,1.484-1.616,0.457c-0.885-2.854-1.693-5.707-2.386-8.599
		c-0.269-1.065,1.347-1.522,1.693-0.456c0.231,0.837,0.462,1.636,0.693,2.473C92.059,170.65,92.597,172.704,93.098,174.759z"/>
	<path style="fill:#1D1D1B;" d="M89.365,173.085c0.077,0.723-1.116,0.875-1.231,0.19c-0.423-3.234-0.693-6.468-1.001-9.74
		c-0.077-0.533,0.885-0.685,0.962-0.114c0.154,1.103,0.308,2.169,0.462,3.272C88.864,168.823,89.172,170.954,89.365,173.085z"/>
	<path style="fill:#1D1D1B;" d="M84.284,74.235c0.654-0.913,2.04-0.114,1.501,0.837c-1.078,1.94-2.309,3.767-3.541,5.593
		c-0.616,0.951-2.078,0.114-1.501-0.875C81.86,77.926,83.014,76.023,84.284,74.235z"/>
	<path style="fill:#1D1D1B;" d="M80.32,74.92c0.77-0.533,1.693,0.685,1.001,1.294c-2.271,1.94-3.541,4.528-3.772,7.457
		c-0.077,0.989-1.462,0.989-1.539,0C75.702,80.133,77.396,76.937,80.32,74.92z"/>
	<path style="fill:#1D1D1B;" d="M72.277,139.412c0.924,0.266,0.77,1.864-0.269,1.75c-4.541-0.571-8.582-3.082-10.968-7.039
		c-0.539-0.875,0.77-1.902,1.462-1.103C65.157,136.102,68.313,138.233,72.277,139.412z"/>
	<path style="fill:#1D1D1B;" d="M66.966,140.82c0.847,0.19,0.654,1.636-0.231,1.522c-4.657-0.571-8.621-3.539-10.468-7.838
		c-0.269-0.609,0.616-1.141,0.962-0.533C59.307,137.7,62.771,140.021,66.966,140.82z"/>
</g>
<g>
</g>
<g>
</g>
<g>
</g>
<g>
</g>
<g>
</g>
<g>
</g>
<g>
</g>
<g>
</g>
<g>
</g>
<g>
</g>
<g>
</g>
<g>
</g>
<g>
</g>
<g>
</g>
<g>
</g>
</svg>
